<svg width="60" height="60" viewBox="0 0 60 60" fill="none" xmlns="http://www.w3.org/2000/svg">
<path fill-rule="evenodd" clip-rule="evenodd" d="M16.2238 13.7998C14.886 13.7998 13.8008 14.852 13.8008 16.1482V44.2365C13.8008 45.5329 14.8861 46.5842 16.2238 46.5842H44.1622C45.5005 46.5842 46.5852 45.5328 46.5852 44.2362V16.1482C46.5852 14.852 45.5005 13.7998 44.1622 13.7998H16.2238ZM23.7634 26.4765V41.2361H18.8575V26.4765H23.7634ZM24.0867 21.9119C24.0867 23.3283 23.0219 24.4616 21.3115 24.4616L21.2793 24.4615C19.6328 24.4615 18.5683 23.3281 18.5683 21.9118C18.5683 20.4632 19.6649 19.3615 21.344 19.3615C23.0219 19.3615 24.0547 20.4632 24.0867 21.9119ZM31.3844 41.2361H26.4789C26.4789 41.2361 26.5431 27.8616 26.4791 26.477H31.3847V28.5662C32.0369 27.5607 33.204 26.1304 35.8062 26.1304C39.0337 26.1304 41.4536 28.24 41.4536 32.7734V41.2361H36.5483V33.341C36.5483 31.3566 35.8379 30.0032 34.0632 30.0032C32.7076 30.0032 31.9005 30.9159 31.546 31.7977C31.4164 32.1123 31.3844 32.554 31.3844 32.9946V41.2361Z" fill="#666666"/>
</svg>
