<svg width="60" height="60" viewBox="0 0 60 60" fill="none" xmlns="http://www.w3.org/2000/svg">
<path fill-rule="evenodd" clip-rule="evenodd" d="M43.0619 18.7145C44.5363 19.1127 45.6952 20.2745 46.0869 21.7473C46.7996 24.42 46.7996 30 46.7996 30C46.7996 30 46.7996 35.58 46.0869 38.2527C45.6897 39.7309 44.5309 40.8927 43.0619 41.2855C40.396 42 29.6996 42 29.6996 42C29.6996 42 19.0087 42 16.3373 41.2855C14.8629 40.8873 13.7041 39.7255 13.3123 38.2527C12.5996 35.58 12.5996 30 12.5996 30C12.5996 30 12.5996 24.42 13.3123 21.7473C13.7095 20.2691 14.8684 19.1073 16.3373 18.7145C19.0087 18 29.6996 18 29.6996 18C29.6996 18 40.396 18 43.0619 18.7145ZM35.1675 30L26.2829 35.1436V24.8564L35.1675 30Z" fill="#666666"/>
</svg>
