<svg width="60" height="60" viewBox="0 0 60 60" fill="none" xmlns="http://www.w3.org/2000/svg">
<path fill-rule="evenodd" clip-rule="evenodd" d="M30.078 13.7998C20.7525 13.7998 13.1992 21.3163 13.1992 30.5966C13.1992 38.0291 18.0308 44.3069 24.7401 46.5325C25.584 46.6794 25.9005 46.1755 25.9005 45.7346C25.9005 45.3357 25.8794 44.013 25.8794 42.6062C21.6386 43.3831 20.5415 41.5774 20.2039 40.6326C20.014 40.1497 19.1912 38.659 18.4738 38.2601C17.8831 37.9451 17.0391 37.1683 18.4527 37.1473C19.782 37.1263 20.7314 38.365 21.0479 38.869C22.567 41.4095 24.9933 40.6956 25.9638 40.2547C26.1115 39.1629 26.5546 38.428 27.0398 38.0081C23.2843 37.5882 19.36 36.1395 19.36 29.7147C19.36 27.8881 20.014 26.3764 21.0901 25.2006C20.9213 24.7807 20.3305 23.059 21.2589 20.7495C21.2589 20.7495 22.6725 20.3085 25.9005 22.4711C27.2508 22.0932 28.6855 21.9042 30.1202 21.9042C31.5549 21.9042 32.9896 22.0932 34.3399 22.4711C37.568 20.2875 38.9816 20.7495 38.9816 20.7495C39.9099 23.059 39.3192 24.7807 39.1504 25.2006C40.2264 26.3764 40.8805 27.8671 40.8805 29.7147C40.8805 36.1605 36.935 37.5882 33.1795 38.0081C33.7914 38.533 34.3188 39.5408 34.3188 41.1155C34.3188 43.3621 34.2977 45.1677 34.2977 45.7346C34.2977 46.1755 34.6142 46.7004 35.4582 46.5325C42.1253 44.3069 46.9568 38.0081 46.9568 30.5966C46.9568 21.3163 39.4036 13.7998 30.078 13.7998Z" fill="#666666"/>
</svg>
