<svg width="60" height="60" viewBox="0 0 60 60" fill="none" xmlns="http://www.w3.org/2000/svg">
<path d="M24.7298 30.1822C24.7298 27.1664 27.1754 24.721 30.193 24.721C33.2106 24.721 35.6575 27.1664 35.6575 30.1822C35.6575 33.198 33.2106 35.6434 30.193 35.6434C27.1754 35.6434 24.7298 33.198 24.7298 30.1822ZM21.7758 30.1822C21.7758 34.8282 25.5442 38.5943 30.193 38.5943C34.8418 38.5943 38.6102 34.8282 38.6102 30.1822C38.6102 25.5361 34.8418 21.77 30.193 21.77C25.5442 21.77 21.7758 25.5361 21.7758 30.1822ZM36.9763 21.4365C36.9762 21.8253 37.0914 22.2054 37.3074 22.5288C37.5234 22.8522 37.8305 23.1043 38.1899 23.2532C38.5493 23.4021 38.9448 23.4412 39.3264 23.3655C39.708 23.2898 40.0586 23.1027 40.3338 22.8279C40.609 22.5531 40.7965 22.2029 40.8725 21.8216C40.9486 21.4403 40.9098 21.045 40.761 20.6857C40.6123 20.3264 40.3603 20.0193 40.0369 19.8031C39.7135 19.587 39.3332 19.4715 38.9442 19.4714H38.9434C38.4219 19.4716 37.9219 19.6787 37.553 20.0472C37.1842 20.4156 36.9768 20.9153 36.9763 21.4365ZM23.5705 43.517C21.9724 43.4443 21.1037 43.1783 20.5264 42.9535C19.7611 42.6557 19.2151 42.3011 18.6409 41.7281C18.0668 41.1551 17.7114 40.6099 17.4148 39.845C17.1898 39.2684 16.9236 38.4 16.8509 36.8028C16.7714 35.0759 16.7556 34.5572 16.7556 30.1823C16.7556 25.8074 16.7728 25.2901 16.8509 23.5619C16.9237 21.9647 17.1919 21.098 17.4148 20.5196C17.7127 19.7547 18.0676 19.209 18.6409 18.6352C19.2143 18.0615 19.7598 17.7063 20.5264 17.4098C21.1034 17.1849 21.9724 16.9189 23.5705 16.8463C25.2984 16.7668 25.8174 16.751 30.193 16.751C34.5685 16.751 35.0881 16.7682 36.8174 16.8463C38.4156 16.919 39.2828 17.187 39.8615 17.4098C40.6268 17.7063 41.1729 18.0622 41.747 18.6352C42.3211 19.2082 42.6752 19.7547 42.9731 20.5196C43.1982 21.0963 43.4644 21.9647 43.537 23.5619C43.6165 25.2901 43.6324 25.8074 43.6324 30.1823C43.6324 34.5572 43.6165 35.0745 43.537 36.8028C43.4643 38.4 43.1967 39.2681 42.9731 39.845C42.6752 40.6099 42.3203 41.1556 41.747 41.7281C41.1737 42.3006 40.6268 42.6557 39.8615 42.9535C39.2845 43.1784 38.4156 43.4444 36.8174 43.517C35.0895 43.5965 34.5705 43.6123 30.193 43.6123C25.8155 43.6123 25.2979 43.5965 23.5705 43.517ZM23.4348 13.899C21.6898 13.9784 20.4973 14.255 19.456 14.6599C18.3775 15.0782 17.4645 15.6392 16.5522 16.5496C15.6399 17.4599 15.0799 18.3738 14.6614 19.4516C14.2562 20.493 13.9795 21.6841 13.9001 23.4281C13.8193 25.1748 13.8008 25.7333 13.8008 30.1822C13.8008 34.6311 13.8193 35.1896 13.9001 36.9363C13.9795 38.6804 14.2562 39.8714 14.6614 40.9128C15.0799 41.9899 15.64 42.9049 16.5522 43.8148C17.4644 44.7248 18.3775 45.285 19.456 45.7044C20.4993 46.1094 21.6898 46.3859 23.4348 46.4653C25.1835 46.5448 25.7414 46.5646 30.193 46.5646C34.6446 46.5646 35.2034 46.5461 36.9512 46.4653C38.6963 46.3859 39.888 46.1094 40.93 45.7044C42.0078 45.285 42.9215 44.7251 43.8338 43.8148C44.7461 42.9045 45.3049 41.9899 45.7245 40.9128C46.1298 39.8714 46.4078 38.6803 46.4859 36.9363C46.5654 35.1882 46.5839 34.6311 46.5839 30.1822C46.5839 25.7333 46.5654 25.1748 46.4859 23.4281C46.4065 21.6839 46.1298 20.4923 45.7245 19.4516C45.3049 18.3744 44.7447 17.4613 43.8338 16.5496C42.9229 15.6378 42.0078 15.0782 40.9313 14.6599C39.888 14.255 38.6962 13.9771 36.9525 13.899C35.2047 13.8196 34.6459 13.7998 30.1943 13.7998C25.7427 13.7998 25.1835 13.8183 23.4348 13.899Z" fill="#666666"/>
</svg>
